0
SECTION
2
HEADER
9
$INSUNITS
70
4
9
$ACADVER
1
AC1014
9
$HANDSEED
5
FFFF
0
ENDSEC
0
SECTION
2
TABLES
0
TABLE
2
VPORT
5
8
100
AcDbSymbolTable
0
ENDTAB
0
TABLE
2
LTYPE
5
5
100
AcDbSymbolTable
0
LTYPE
5
14
100
AcDbSymbolTableRecord
100
AcDbLinetypeTableRecord
2
BYBLOCK
70
0
0
LTYPE
5
15
100
AcDbSymbolTableRecord
100
AcDbLinetypeTableRecord
2
BYLAYER
70
0
0
ENDTAB
0
TABLE
2
LAYER
5
2
100
AcDbSymbolTable
70
2
0
LAYER
5
50
100
AcDbSymbolTableRecord
100
AcDbLayerTableRecord
2
0
70
0
6
CONTINUOUS
0
ENDTAB
0
TABLE
2
STYLE
5
3
100
AcDbSymbolTable
70
1
0
STYLE
5
11
100
AcDbSymbolTableRecord
100
AcDbTextStyleTableRecord
2
STANDARD
70
0
0
ENDTAB
0
TABLE
2
VIEW
5
6
100
AcDbSymbolTable
70
0
0
ENDTAB
0
TABLE
2
UCS
5
7
100
AcDbSymbolTable
70
0
0
ENDTAB
0
TABLE
2
APPID
5
9
100
AcDbSymbolTable
70
2
0
APPID
5
12
100
AcDbSymbolTableRecord
100
AcDbRegAppTableRecord
2
ACAD
70
0
0
ENDTAB
0
TABLE
2
DIMSTYLE
5
A
100
AcDbSymbolTable
70
1
0
ENDTAB
0
TABLE
2
BLOCK_RECORD
5
1
100
AcDbSymbolTable
70
1
0
BLOCK_RECORD
5
1F
100
AcDbSymbolTableRecord
100
AcDbBlockTableRecord
2
*MODEL_SPACE
0
BLOCK_RECORD
5
1B
100
AcDbSymbolTableRecord
100
AcDbBlockTableRecord
2
*PAPER_SPACE
0
ENDTAB
0
ENDSEC
0
SECTION
2
BLOCKS
0
BLOCK
5
20
100
AcDbEntity
100
AcDbBlockBegin
2
*MODEL_SPACE
0
ENDBLK
5
21
100
AcDbEntity
100
AcDbBlockEnd
0
BLOCK
5
1C
100
AcDbEntity
100
AcDbBlockBegin
2
*PAPER_SPACE
0
ENDBLK
5
1D
100
AcDbEntity
100
AcDbBlockEnd
0
ENDSEC
0
SECTION
2
ENTITIES
0
ARC
5
100
100
AcDbEntity
8
0
100
AcDbCircle
10
-20.757750016395512
20
-5.7000000024924677
30
0
40
0.99999999999999756
210
0
220
0
230
1
100
AcDbArc
50
-90.000000043907534
51
0
0
LINE
5
101
100
AcDbEntity
8
0
100
AcDbLine
10
-19.757750016395516
20
-5.7000000024924669
30
0
11
-19.757750016395519
21
-1.1800000183996218
31
0
0
ARC
5
102
100
AcDbEntity
8
0
100
AcDbCircle
10
-18.757750016395519
20
-1.1800000183996218
30
0
40
1.0000000000000002
210
0
220
-0
230
1
100
AcDbArc
50
90
51
180
0
ARC
5
103
100
AcDbEntity
8
0
100
AcDbCircle
10
-9.8177499865931921
20
-1.1800000183996224
30
0
40
0.99999999999999978
210
0
220
-0
230
1
100
AcDbArc
50
0
51
90
0
LINE
5
104
100
AcDbEntity
8
0
100
AcDbLine
10
-8.8177499865931921
20
-1.180000018399622
30
0
11
-8.8177499865931939
21
-5.7000000124087027
31
0
0
ARC
5
105
100
AcDbEntity
8
0
100
AcDbCircle
10
-7.8177499865931939
20
-5.7000000124087062
30
0
40
0.99999999999999978
210
0
220
0
230
1
100
AcDbArc
50
180
51
269.99999995609289
0
LINE
5
106
100
AcDbEntity
8
0
100
AcDbLine
10
-7.8177499873595178
20
-6.7000000124087045
30
0
11
-4.5652584975997437
21
-6.7000000149011676
31
0
0
ARC
5
107
100
AcDbEntity
8
0
100
AcDbCircle
10
-4.565258497599741
20
-4.0000000000000053
30
0
40
2.7000000149011614
210
0
220
0
230
1
100
AcDbArc
50
-90.000000000000057
51
0
0
LINE
5
108
100
AcDbEntity
8
0
100
AcDbLine
10
-1.8652584826985796
20
-4.0000000000000053
30
0
11
-1.8652584827117333
21
-0.11841542963546559
31
0
0
ARC
5
109
100
AcDbEntity
8
0
100
AcDbCircle
10
-0.86525848271173311
20
-0.11841542963207448
30
0
40
1
210
0
220
-0
230
1
100
AcDbArc
50
89.999999698451617
51
180
0
LINE
5
110
100
AcDbEntity
8
0
100
AcDbLine
10
-0.86525847744872098
20
0.8815845703679257
30
0
11
1.1189999644004245
21
0.88158455992474849
31
0
0
ARC
5
111
100
AcDbEntity
8
0
100
AcDbCircle
10
1.1189999326189497
20
1.8815845599247483
30
0
40
1.0000000000000004
210
-0
220
0
230
1
100
AcDbArc
50
-89.999998179055595
51
4.0045533657003902e-06
0
LINE
5
112
100
AcDbEntity
8
0
100
AcDbLine
10
2.118999932618947
20
1.8815846306847763
30
0
11
2.1189987800796062
21
18.169584591701824
31
0
0
LINE
5
113
100
AcDbEntity
8
0
100
AcDbLine
10
2.1189987800796062
20
18.169584591701824
30
0
11
2.118998780079612
21
36.219584394894746
31
0
0
ARC
5
114
100
AcDbEntity
8
0
100
AcDbCircle
10
1.118998780079614
20
36.219584394894746
30
0
40
0.99999999999999767
210
0
220
-0
230
1
100
AcDbArc
50
0
51
90.027840122039706
0
LINE
5
115
100
AcDbEntity
8
0
100
AcDbLine
10
1.1185128783049845
20
37.219584276844472
30
0
11
0.018322849916161399
21
37.219584395546129
31
0
0
ARC
5
116
100
AcDbEntity
8
0
100
AcDbCircle
10
0.018322850507967933
20
38.219584395546136
30
0
40
1.0000000000000071
210
0
220
0
230
1
100
AcDbArc
50
180
51
269.99999996609199
0
LINE
5
117
100
AcDbEntity
8
0
100
AcDbLine
10
-0.98167714949203899
20
38.219584395546129
30
0
11
-0.98167714949203622
21
42.099999999999994
31
0
0
ARC
5
118
100
AcDbEntity
8
0
100
AcDbCircle
10
-3.6816771643931978
20
42.099999999999994
30
0
40
2.7000000149011614
210
0
220
0
230
1
100
AcDbArc
50
0
51
180
0
LINE
5
119
100
AcDbEntity
8
0
100
AcDbLine
10
-6.3816771792943596
20
42.099999999999994
30
0
11
-6.3816771792943614
21
38.219584394664523
31
0
0
ARC
5
120
100
AcDbEntity
8
0
100
AcDbCircle
10
-7.381677179294365
20
38.219584394664523
30
0
40
1.0000000000000009
210
0
220
0
230
1
100
AcDbArc
50
-89.999999986809243
51
0
0
LINE
5
121
100
AcDbEntity
8
0
100
AcDbLine
10
-7.3816771790641429
20
37.219584394664523
30
0
11
-21.193822820475432
21
37.219584391484716
31
0
0
ARC
5
122
100
AcDbEntity
8
0
100
AcDbCircle
10
-21.193822820705655
20
38.219584391484716
30
0
40
1.0000000000000009
210
0
220
0
230
1
100
AcDbArc
50
180
51
270.0000000131908
0
LINE
5
123
100
AcDbEntity
8
0
100
AcDbLine
10
-22.193822820705655
20
38.219584391484716
30
0
11
-22.193822820705655
21
42.100000000000001
31
0
0
ARC
5
124
100
AcDbEntity
8
0
100
AcDbCircle
10
-24.893822835606819
20
42.100000000000001
30
0
40
2.7000000149011649
210
0
220
0
230
1
100
AcDbArc
50
0
51
180
0
LINE
5
125
100
AcDbEntity
8
0
100
AcDbLine
10
-27.593822850507983
20
42.100000000000001
30
0
11
-27.593822850507983
21
38.219584394051253
31
0
0
ARC
5
126
100
AcDbEntity
8
0
100
AcDbCircle
10
-28.593822850507994
20
38.219584394051267
30
0
40
1.0000000000000098
210
0
220
0
230
1
100
AcDbArc
50
270.0000000000004
51
360
0
LINE
5
127
100
AcDbEntity
8
0
100
AcDbLine
10
-28.593822850507987
20
37.219584394051253
30
0
11
-29.693999995687101
21
37.219584400420452
31
0
0
ARC
5
128
100
AcDbEntity
8
0
100
AcDbCircle
10
-29.693999999968774
20
36.219584400420459
30
0
40
0.99999999999999645
210
0
220
-0
230
1
100
AcDbArc
50
89.999999754678171
51
180
0
LINE
5
129
100
AcDbEntity
8
0
100
AcDbLine
10
-30.693999999968771
20
36.219584400441917
30
0
11
-30.694000000706033
21
1.8815844545062266
31
0
0
ARC
5
130
100
AcDbEntity
8
0
100
AcDbCircle
10
-29.694000000706033
20
1.8815844544847582
30
0
40
1.0000000000000009
210
0
220
0
230
1
100
AcDbArc
50
180
51
270.00000024942432
0
LINE
5
131
100
AcDbEntity
8
0
100
AcDbLine
10
-29.693999996352758
20
0.88158445448475731
30
0
11
-27.710241506753583
21
0.88158446312060157
31
0
0
ARC
5
132
100
AcDbEntity
8
0
100
AcDbCircle
10
-27.710241502400311
20
-0.11841553687940001
30
0
40
1.0000000000000098
210
0
220
-0
230
1
100
AcDbArc
50
0
51
90.000000249424076
0
LINE
5
133
100
AcDbEntity
8
0
100
AcDbLine
10
-26.710241502400301
20
-0.11841553687939596
30
0
11
-26.710241502400301
21
-4.0000000000000036
31
0
0
ARC
5
134
100
AcDbEntity
8
0
100
AcDbCircle
10
-24.010241502400302
20
-4.0000000000000009
30
0
40
2.7000000000000002
210
0
220
0
230
1
100
AcDbArc
50
180
51
270
0
LINE
5
135
100
AcDbEntity
8
0
100
AcDbLine
10
-24.010241502400302
20
-6.7000000000000011
30
0
11
-20.757750017161843
21
-6.700000002492466
31
0
0
CIRCLE
5
136
100
AcDbEntity
8
0
100
AcDbCircle
10
-24.893822835606819
20
42.100000000000001
30
0
40
1.7000000000000037
210
0
220
-0
230
1
0
CIRCLE
5
137
100
AcDbEntity
8
0
100
AcDbCircle
10
-24.010241502400302
20
-4.0000000000000009
30
0
40
1.6999999999999993
210
0
220
-0
230
1
0
CIRCLE
5
138
100
AcDbEntity
8
0
100
AcDbCircle
10
-4.565258497599741
20
-4.0000000000000053
30
0
40
1.7000000000000004
210
0
220
-0
230
1
0
CIRCLE
5
139
100
AcDbEntity
8
0
100
AcDbCircle
10
-3.6816771643931978
20
42.099999999999994
30
0
40
1.7000000000000004
210
0
220
-0
230
1
0
LINE
5
140
100
AcDbEntity
8
0
100
AcDbLine
10
-18.757750001494358
20
-0.38000001839962216
30
0
11
-18.757750001494358
21
-7.7000000183996402
31
0
0
LINE
5
141
100
AcDbEntity
8
0
100
AcDbLine
10
-9.8177500014943533
20
-7.7000000183996402
30
0
11
-9.8177500014943533
21
-0.38000001839962216
31
0
0
LINE
5
142
100
AcDbEntity
8
0
100
AcDbLine
10
-18.757750001494358
20
-7.7000000183996402
30
0
11
-9.8177500014943533
21
-7.7000000183996402
31
0
0
LWPOLYLINE
5
143
100
AcDbEntity
8
0
100
AcDbPolyline
90
8
70
1
43
0.0
10
-23.168749999999999
20
26.050000000000004
42
0.41421356237309503
10
-23.668750000000003
20
25.550000000000001
10
-23.668749999999999
20
12.550000000000001
42
0.41421356237309503
10
-23.168749999999999
20
12.050000000000002
10
-10.168749999999999
20
12.050000000000001
42
0.41421356237309503
10
-9.6687499999999993
20
12.550000000000001
10
-9.6687499999999993
20
25.550000000000001
42
0.41421356237309503
10
-10.168749999999999
20
26.050000000000004
0
LWPOLYLINE
5
144
100
AcDbEntity
8
0
100
AcDbPolyline
90
8
70
1
43
0.0
10
-22.168749999999999
20
10.612000000000002
42
0.41421356237309503
10
-22.668749999999996
20
10.112000000000002
10
-22.668750000000003
20
4.1120000000000001
42
0.41421356237309503
10
-22.168749999999999
20
3.6119999999999974
10
-8.1687499999999993
20
3.6120000000000001
42
0.41421356237309503
10
-7.6687499999999993
20
4.1120000000000001
10
-7.6687500000000011
20
10.112000000000002
42
0.41421356237309503
10
-8.1687499999999993
20
10.612000000000002
0
LWPOLYLINE
5
145
100
AcDbEntity
8
0
100
AcDbPolyline
90
8
70
1
43
0.0
10
-22.168749999999999
20
34.488
42
0.41421356237309503
10
-22.668750000000003
20
33.988
10
-22.668750000000003
20
27.988000000000003
42
0.41421356237309503
10
-22.168749999999999
20
27.488
10
-8.1687499999999993
20
27.488000000000007
42
0.41421356237309503
10
-7.668750000000002
20
27.988000000000003
10
-7.6687500000000011
20
33.988
42
0.41421356237309503
10
-8.1687499999999993
20
34.488
0
LINE
5
146
100
AcDbEntity
8
0
100
AcDbLine
10
-9.8177500014943533
20
-0.38000001839962216
30
0
11
-9.8177499865931921
21
-0.18000001839962215
31
0
0
LINE
5
147
100
AcDbEntity
8
0
100
AcDbLine
10
-18.757750001494358
20
-0.38000001839962216
30
0
11
-18.757750016395519
21
-0.18000001839962157
31
0
0
ENDSEC
0
SECTION
2
OBJECTS
0
DICTIONARY
5
C
100
AcDbDictionary
3
ACAD_GROUP
350
D
3
ACAD_MLINESTYLE
350
17
0
DICTIONARY
5
D
100
AcDbDictionary
0
DICTIONARY
5
1A
330
C
100
AcDbDictionary
0
DICTIONARY
5
17
100
AcDbDictionary
0
ENDSEC
0
EOF
