%TF.GenerationSoftware,KiCad,Pcbnew,8.0.7*%
%TF.CreationDate,2025-02-15T22:59:02+05:30*%
%TF.ProjectId,isopcb,69736f70-6362-42e6-9b69-6361645f7063,rev?*%
%TF.SameCoordinates,Original*%
%TF.FileFunction,Legend,Bot*%
%TF.FilePolarity,Positive*%
%FSLAX46Y46*%
G04 Gerber Fmt 4.6, Leading zero omitted, Abs format (unit mm)*
G04 Created by KiCad (PCBNEW 8.0.7) date 2025-02-15 22:59:02*
%MOMM*%
%LPD*%
G01*
G04 APERTURE LIST*
G04 Aperture macros list*
%AMRoundRect*
0 Rectangle with rounded corners*
0 $1 Rounding radius*
0 $2 $3 $4 $5 $6 $7 $8 $9 X,Y pos of 4 corners*
0 Add a 4 corners polygon primitive as box body*
4,1,4,$2,$3,$4,$5,$6,$7,$8,$9,$2,$3,0*
0 Add four circle primitives for the rounded corners*
1,1,$1+$1,$2,$3*
1,1,$1+$1,$4,$5*
1,1,$1+$1,$6,$7*
1,1,$1+$1,$8,$9*
0 Add four rect primitives between the rounded corners*
20,1,$1+$1,$2,$3,$4,$5,0*
20,1,$1+$1,$4,$5,$6,$7,0*
20,1,$1+$1,$6,$7,$8,$9,0*
20,1,$1+$1,$8,$9,$2,$3,0*%
G04 Aperture macros list end*
%ADD10C,0.300000*%
%ADD11C,0.150000*%
%ADD12C,0.120000*%
%ADD13C,3.987800*%
%ADD14C,1.701800*%
%ADD15C,3.048000*%
%ADD16C,2.300000*%
%ADD17RoundRect,0.225000X0.250000X-0.225000X0.250000X0.225000X-0.250000X0.225000X-0.250000X-0.225000X0*%
%ADD18RoundRect,0.225000X-0.225000X-0.250000X0.225000X-0.250000X0.225000X0.250000X-0.225000X0.250000X0*%
%ADD19RoundRect,0.243750X-0.456250X0.243750X-0.456250X-0.243750X0.456250X-0.243750X0.456250X0.243750X0*%
%ADD20C,0.650000*%
%ADD21R,0.600000X1.450000*%
%ADD22R,0.300000X1.450000*%
%ADD23O,1.000000X1.600000*%
%ADD24O,1.000000X2.100000*%
%ADD25RoundRect,0.200000X-0.200000X-0.275000X0.200000X-0.275000X0.200000X0.275000X-0.200000X0.275000X0*%
%ADD26R,1.900000X0.400000*%
%ADD27RoundRect,0.200000X0.200000X0.275000X-0.200000X0.275000X-0.200000X-0.275000X0.200000X-0.275000X0*%
%ADD28RoundRect,0.200000X0.275000X-0.200000X0.275000X0.200000X-0.275000X0.200000X-0.275000X-0.200000X0*%
%ADD29RoundRect,0.250000X-0.325000X-0.650000X0.325000X-0.650000X0.325000X0.650000X-0.325000X0.650000X0*%
%ADD30RoundRect,0.225000X0.225000X0.250000X-0.225000X0.250000X-0.225000X-0.250000X0.225000X-0.250000X0*%
%ADD31RoundRect,0.200000X-0.275000X0.200000X-0.275000X-0.200000X0.275000X-0.200000X0.275000X0.200000X0*%
%ADD32R,1.000000X1.700000*%
%ADD33R,0.700000X1.000000*%
%ADD34R,0.700000X0.600000*%
%ADD35R,1.600000X0.550000*%
%ADD36R,0.550000X1.600000*%
G04 APERTURE END LIST*
D10*
X150603828Y-95068253D02*
X149889542Y-94568253D01*
X150603828Y-94211110D02*
X149103828Y-94211110D01*
X149103828Y-94211110D02*
X149103828Y-94782539D01*
X149103828Y-94782539D02*
X149175257Y-94925396D01*
X149175257Y-94925396D02*
X149246685Y-94996825D01*
X149246685Y-94996825D02*
X149389542Y-95068253D01*
X149389542Y-95068253D02*
X149603828Y-95068253D01*
X149603828Y-95068253D02*
X149746685Y-94996825D01*
X149746685Y-94996825D02*
X149818114Y-94925396D01*
X149818114Y-94925396D02*
X149889542Y-94782539D01*
X149889542Y-94782539D02*
X149889542Y-94211110D01*
X149818114Y-95711110D02*
X149818114Y-96211110D01*
X150603828Y-96425396D02*
X150603828Y-95711110D01*
X150603828Y-95711110D02*
X149103828Y-95711110D01*
X149103828Y-95711110D02*
X149103828Y-96425396D01*
X150532400Y-96996825D02*
X150603828Y-97211111D01*
X150603828Y-97211111D02*
X150603828Y-97568253D01*
X150603828Y-97568253D02*
X150532400Y-97711111D01*
X150532400Y-97711111D02*
X150460971Y-97782539D01*
X150460971Y-97782539D02*
X150318114Y-97853968D01*
X150318114Y-97853968D02*
X150175257Y-97853968D01*
X150175257Y-97853968D02*
X150032400Y-97782539D01*
X150032400Y-97782539D02*
X149960971Y-97711111D01*
X149960971Y-97711111D02*
X149889542Y-97568253D01*
X149889542Y-97568253D02*
X149818114Y-97282539D01*
X149818114Y-97282539D02*
X149746685Y-97139682D01*
X149746685Y-97139682D02*
X149675257Y-97068253D01*
X149675257Y-97068253D02*
X149532400Y-96996825D01*
X149532400Y-96996825D02*
X149389542Y-96996825D01*
X149389542Y-96996825D02*
X149246685Y-97068253D01*
X149246685Y-97068253D02*
X149175257Y-97139682D01*
X149175257Y-97139682D02*
X149103828Y-97282539D01*
X149103828Y-97282539D02*
X149103828Y-97639682D01*
X149103828Y-97639682D02*
X149175257Y-97853968D01*
X149818114Y-98496824D02*
X149818114Y-98996824D01*
X150603828Y-99211110D02*
X150603828Y-98496824D01*
X150603828Y-98496824D02*
X149103828Y-98496824D01*
X149103828Y-98496824D02*
X149103828Y-99211110D01*
X149103828Y-99639682D02*
X149103828Y-100496825D01*
X150603828Y-100068253D02*
X149103828Y-100068253D01*
D11*
X178784680Y-104620433D02*
X178832300Y-104572814D01*
X178832300Y-104572814D02*
X178879919Y-104429957D01*
X178879919Y-104429957D02*
X178879919Y-104334719D01*
X178879919Y-104334719D02*
X178832300Y-104191862D01*
X178832300Y-104191862D02*
X178737061Y-104096624D01*
X178737061Y-104096624D02*
X178641823Y-104049005D01*
X178641823Y-104049005D02*
X178451347Y-104001386D01*
X178451347Y-104001386D02*
X178308490Y-104001386D01*
X178308490Y-104001386D02*
X178118014Y-104049005D01*
X178118014Y-104049005D02*
X178022776Y-104096624D01*
X178022776Y-104096624D02*
X177927538Y-104191862D01*
X177927538Y-104191862D02*
X177879919Y-104334719D01*
X177879919Y-104334719D02*
X177879919Y-104429957D01*
X177879919Y-104429957D02*
X177927538Y-104572814D01*
X177927538Y-104572814D02*
X177975157Y-104620433D01*
X177879919Y-104953767D02*
X177879919Y-105572814D01*
X177879919Y-105572814D02*
X178260871Y-105239481D01*
X178260871Y-105239481D02*
X178260871Y-105382338D01*
X178260871Y-105382338D02*
X178308490Y-105477576D01*
X178308490Y-105477576D02*
X178356109Y-105525195D01*
X178356109Y-105525195D02*
X178451347Y-105572814D01*
X178451347Y-105572814D02*
X178689442Y-105572814D01*
X178689442Y-105572814D02*
X178784680Y-105525195D01*
X178784680Y-105525195D02*
X178832300Y-105477576D01*
X178832300Y-105477576D02*
X178879919Y-105382338D01*
X178879919Y-105382338D02*
X178879919Y-105096624D01*
X178879919Y-105096624D02*
X178832300Y-105001386D01*
X178832300Y-105001386D02*
X178784680Y-104953767D01*
X162081466Y-97827280D02*
X162129085Y-97874900D01*
X162129085Y-97874900D02*
X162271942Y-97922519D01*
X162271942Y-97922519D02*
X162367180Y-97922519D01*
X162367180Y-97922519D02*
X162510037Y-97874900D01*
X162510037Y-97874900D02*
X162605275Y-97779661D01*
X162605275Y-97779661D02*
X162652894Y-97684423D01*
X162652894Y-97684423D02*
X162700513Y-97493947D01*
X162700513Y-97493947D02*
X162700513Y-97351090D01*
X162700513Y-97351090D02*
X162652894Y-97160614D01*
X162652894Y-97160614D02*
X162605275Y-97065376D01*
X162605275Y-97065376D02*
X162510037Y-96970138D01*
X162510037Y-96970138D02*
X162367180Y-96922519D01*
X162367180Y-96922519D02*
X162271942Y-96922519D01*
X162271942Y-96922519D02*
X162129085Y-96970138D01*
X162129085Y-96970138D02*
X162081466Y-97017757D01*
X161129085Y-97922519D02*
X161700513Y-97922519D01*
X161414799Y-97922519D02*
X161414799Y-96922519D01*
X161414799Y-96922519D02*
X161510037Y-97065376D01*
X161510037Y-97065376D02*
X161605275Y-97160614D01*
X161605275Y-97160614D02*
X161700513Y-97208233D01*
X168989109Y-78242966D02*
X168989109Y-77909633D01*
X169512919Y-77909633D02*
X168512919Y-77909633D01*
X168512919Y-77909633D02*
X168512919Y-78385823D01*
X169512919Y-79290585D02*
X169512919Y-78719157D01*
X169512919Y-79004871D02*
X168512919Y-79004871D01*
X168512919Y-79004871D02*
X168655776Y-78909633D01*
X168655776Y-78909633D02*
X168751014Y-78814395D01*
X168751014Y-78814395D02*
X168798633Y-78719157D01*
X164629233Y-75662619D02*
X164629233Y-76376904D01*
X164629233Y-76376904D02*
X164676852Y-76519761D01*
X164676852Y-76519761D02*
X164772090Y-76615000D01*
X164772090Y-76615000D02*
X164914947Y-76662619D01*
X164914947Y-76662619D02*
X165010185Y-76662619D01*
X163629233Y-76662619D02*
X164200661Y-76662619D01*
X163914947Y-76662619D02*
X163914947Y-75662619D01*
X163914947Y-75662619D02*
X164010185Y-75805476D01*
X164010185Y-75805476D02*
X164105423Y-75900714D01*
X164105423Y-75900714D02*
X164200661Y-75948333D01*
X171605866Y-77443719D02*
X171939199Y-76967528D01*
X172177294Y-77443719D02*
X172177294Y-76443719D01*
X172177294Y-76443719D02*
X171796342Y-76443719D01*
X171796342Y-76443719D02*
X171701104Y-76491338D01*
X171701104Y-76491338D02*
X171653485Y-76538957D01*
X171653485Y-76538957D02*
X171605866Y-76634195D01*
X171605866Y-76634195D02*
X171605866Y-76777052D01*
X171605866Y-76777052D02*
X171653485Y-76872290D01*
X171653485Y-76872290D02*
X171701104Y-76919909D01*
X171701104Y-76919909D02*
X171796342Y-76967528D01*
X171796342Y-76967528D02*
X172177294Y-76967528D01*
X170748723Y-76777052D02*
X170748723Y-77443719D01*
X170986818Y-76396100D02*
X171224913Y-77110385D01*
X171224913Y-77110385D02*
X170605866Y-77110385D01*
X170018466Y-110779119D02*
X170351799Y-110302928D01*
X170589894Y-110779119D02*
X170589894Y-109779119D01*
X170589894Y-109779119D02*
X170208942Y-109779119D01*
X170208942Y-109779119D02*
X170113704Y-109826738D01*
X170113704Y-109826738D02*
X170066085Y-109874357D01*
X170066085Y-109874357D02*
X170018466Y-109969595D01*
X170018466Y-109969595D02*
X170018466Y-110112452D01*
X170018466Y-110112452D02*
X170066085Y-110207690D01*
X170066085Y-110207690D02*
X170113704Y-110255309D01*
X170113704Y-110255309D02*
X170208942Y-110302928D01*
X170208942Y-110302928D02*
X170589894Y-110302928D01*
X169685132Y-109779119D02*
X169066085Y-109779119D01*
X169066085Y-109779119D02*
X169399418Y-110160071D01*
X169399418Y-110160071D02*
X169256561Y-110160071D01*
X169256561Y-110160071D02*
X169161323Y-110207690D01*
X169161323Y-110207690D02*
X169113704Y-110255309D01*
X169113704Y-110255309D02*
X169066085Y-110350547D01*
X169066085Y-110350547D02*
X169066085Y-110588642D01*
X169066085Y-110588642D02*
X169113704Y-110683880D01*
X169113704Y-110683880D02*
X169161323Y-110731500D01*
X169161323Y-110731500D02*
X169256561Y-110779119D01*
X169256561Y-110779119D02*
X169542275Y-110779119D01*
X169542275Y-110779119D02*
X169637513Y-110731500D01*
X169637513Y-110731500D02*
X169685132Y-110683880D01*
X173386328Y-100304809D02*
X173862519Y-100304809D01*
X172862519Y-99971476D02*
X173386328Y-100304809D01*
X173386328Y-100304809D02*
X172862519Y-100638142D01*
X173862519Y-101495285D02*
X173862519Y-100923857D01*
X173862519Y-101209571D02*
X172862519Y-101209571D01*
X172862519Y-101209571D02*
X173005376Y-101114333D01*
X173005376Y-101114333D02*
X173100614Y-101019095D01*
X173100614Y-101019095D02*
X173148233Y-100923857D01*
X157319266Y-77601119D02*
X157652599Y-77124928D01*
X157890694Y-77601119D02*
X157890694Y-76601119D01*
X157890694Y-76601119D02*
X157509742Y-76601119D01*
X157509742Y-76601119D02*
X157414504Y-76648738D01*
X157414504Y-76648738D02*
X157366885Y-76696357D01*
X157366885Y-76696357D02*
X157319266Y-76791595D01*
X157319266Y-76791595D02*
X157319266Y-76934452D01*
X157319266Y-76934452D02*
X157366885Y-77029690D01*
X157366885Y-77029690D02*
X157414504Y-77077309D01*
X157414504Y-77077309D02*
X157509742Y-77124928D01*
X157509742Y-77124928D02*
X157890694Y-77124928D01*
X156414504Y-76601119D02*
X156890694Y-76601119D01*
X156890694Y-76601119D02*
X156938313Y-77077309D01*
X156938313Y-77077309D02*
X156890694Y-77029690D01*
X156890694Y-77029690D02*
X156795456Y-76982071D01*
X156795456Y-76982071D02*
X156557361Y-76982071D01*
X156557361Y-76982071D02*
X156462123Y-77029690D01*
X156462123Y-77029690D02*
X156414504Y-77077309D01*
X156414504Y-77077309D02*
X156366885Y-77172547D01*
X156366885Y-77172547D02*
X156366885Y-77410642D01*
X156366885Y-77410642D02*
X156414504Y-77505880D01*
X156414504Y-77505880D02*
X156462123Y-77553500D01*
X156462123Y-77553500D02*
X156557361Y-77601119D01*
X156557361Y-77601119D02*
X156795456Y-77601119D01*
X156795456Y-77601119D02*
X156890694Y-77553500D01*
X156890694Y-77553500D02*
X156938313Y-77505880D01*
X160624819Y-99045833D02*
X160148628Y-98712500D01*
X160624819Y-98474405D02*
X159624819Y-98474405D01*
X159624819Y-98474405D02*
X159624819Y-98855357D01*
X159624819Y-98855357D02*
X159672438Y-98950595D01*
X159672438Y-98950595D02*
X159720057Y-98998214D01*
X159720057Y-98998214D02*
X159815295Y-99045833D01*
X159815295Y-99045833D02*
X159958152Y-99045833D01*
X159958152Y-99045833D02*
X160053390Y-98998214D01*
X160053390Y-98998214D02*
X160101009Y-98950595D01*
X160101009Y-98950595D02*
X160148628Y-98855357D01*
X160148628Y-98855357D02*
X160148628Y-98474405D01*
X159624819Y-99902976D02*
X159624819Y-99712500D01*
X159624819Y-99712500D02*
X159672438Y-99617262D01*
X159672438Y-99617262D02*
X159720057Y-99569643D01*
X159720057Y-99569643D02*
X159862914Y-99474405D01*
X159862914Y-99474405D02*
X160053390Y-99426786D01*
X160053390Y-99426786D02*
X160434342Y-99426786D01*
X160434342Y-99426786D02*
X160529580Y-99474405D01*
X160529580Y-99474405D02*
X160577200Y-99522024D01*
X160577200Y-99522024D02*
X160624819Y-99617262D01*
X160624819Y-99617262D02*
X160624819Y-99807738D01*
X160624819Y-99807738D02*
X160577200Y-99902976D01*
X160577200Y-99902976D02*
X160529580Y-99950595D01*
X160529580Y-99950595D02*
X160434342Y-99998214D01*
X160434342Y-99998214D02*
X160196247Y-99998214D01*
X160196247Y-99998214D02*
X160101009Y-99950595D01*
X160101009Y-99950595D02*
X160053390Y-99902976D01*
X160053390Y-99902976D02*
X160005771Y-99807738D01*
X160005771Y-99807738D02*
X160005771Y-99617262D01*
X160005771Y-99617262D02*
X160053390Y-99522024D01*
X160053390Y-99522024D02*
X160101009Y-99474405D01*
X160101009Y-99474405D02*
X160196247Y-99426786D01*
X164462566Y-89516580D02*
X164510185Y-89564200D01*
X164510185Y-89564200D02*
X164653042Y-89611819D01*
X164653042Y-89611819D02*
X164748280Y-89611819D01*
X164748280Y-89611819D02*
X164891137Y-89564200D01*
X164891137Y-89564200D02*
X164986375Y-89468961D01*
X164986375Y-89468961D02*
X165033994Y-89373723D01*
X165033994Y-89373723D02*
X165081613Y-89183247D01*
X165081613Y-89183247D02*
X165081613Y-89040390D01*
X165081613Y-89040390D02*
X165033994Y-88849914D01*
X165033994Y-88849914D02*
X164986375Y-88754676D01*
X164986375Y-88754676D02*
X164891137Y-88659438D01*
X164891137Y-88659438D02*
X164748280Y-88611819D01*
X164748280Y-88611819D02*
X164653042Y-88611819D01*
X164653042Y-88611819D02*
X164510185Y-88659438D01*
X164510185Y-88659438D02*
X164462566Y-88707057D01*
X164081613Y-88707057D02*
X164033994Y-88659438D01*
X164033994Y-88659438D02*
X163938756Y-88611819D01*
X163938756Y-88611819D02*
X163700661Y-88611819D01*
X163700661Y-88611819D02*
X163605423Y-88659438D01*
X163605423Y-88659438D02*
X163557804Y-88707057D01*
X163557804Y-88707057D02*
X163510185Y-88802295D01*
X163510185Y-88802295D02*
X163510185Y-88897533D01*
X163510185Y-88897533D02*
X163557804Y-89040390D01*
X163557804Y-89040390D02*
X164129232Y-89611819D01*
X164129232Y-89611819D02*
X163510185Y-89611819D01*
X173986966Y-95760980D02*
X174034585Y-95808600D01*
X174034585Y-95808600D02*
X174177442Y-95856219D01*
X174177442Y-95856219D02*
X174272680Y-95856219D01*
X174272680Y-95856219D02*
X174415537Y-95808600D01*
X174415537Y-95808600D02*
X174510775Y-95713361D01*
X174510775Y-95713361D02*
X174558394Y-95618123D01*
X174558394Y-95618123D02*
X174606013Y-95427647D01*
X174606013Y-95427647D02*
X174606013Y-95284790D01*
X174606013Y-95284790D02*
X174558394Y-95094314D01*
X174558394Y-95094314D02*
X174510775Y-94999076D01*
X174510775Y-94999076D02*
X174415537Y-94903838D01*
X174415537Y-94903838D02*
X174272680Y-94856219D01*
X174272680Y-94856219D02*
X174177442Y-94856219D01*
X174177442Y-94856219D02*
X174034585Y-94903838D01*
X174034585Y-94903838D02*
X173986966Y-94951457D01*
X173129823Y-95189552D02*
X173129823Y-95856219D01*
X173367918Y-94808600D02*
X173606013Y-95522885D01*
X173606013Y-95522885D02*
X172986966Y-95522885D01*
X165320719Y-83965533D02*
X164844528Y-83632200D01*
X165320719Y-83394105D02*
X164320719Y-83394105D01*
X164320719Y-83394105D02*
X164320719Y-83775057D01*
X164320719Y-83775057D02*
X164368338Y-83870295D01*
X164368338Y-83870295D02*
X164415957Y-83917914D01*
X164415957Y-83917914D02*
X164511195Y-83965533D01*
X164511195Y-83965533D02*
X164654052Y-83965533D01*
X164654052Y-83965533D02*
X164749290Y-83917914D01*
X164749290Y-83917914D02*
X164796909Y-83870295D01*
X164796909Y-83870295D02*
X164844528Y-83775057D01*
X164844528Y-83775057D02*
X164844528Y-83394105D01*
X165320719Y-84917914D02*
X165320719Y-84346486D01*
X165320719Y-84632200D02*
X164320719Y-84632200D01*
X164320719Y-84632200D02*
X164463576Y-84536962D01*
X164463576Y-84536962D02*
X164558814Y-84441724D01*
X164558814Y-84441724D02*
X164606433Y-84346486D01*
X161320719Y-83965533D02*
X160844528Y-83632200D01*
X161320719Y-83394105D02*
X160320719Y-83394105D01*
X160320719Y-83394105D02*
X160320719Y-83775057D01*
X160320719Y-83775057D02*
X160368338Y-83870295D01*
X160368338Y-83870295D02*
X160415957Y-83917914D01*
X160415957Y-83917914D02*
X160511195Y-83965533D01*
X160511195Y-83965533D02*
X160654052Y-83965533D01*
X160654052Y-83965533D02*
X160749290Y-83917914D01*
X160749290Y-83917914D02*
X160796909Y-83870295D01*
X160796909Y-83870295D02*
X160844528Y-83775057D01*
X160844528Y-83775057D02*
X160844528Y-83394105D01*
X160415957Y-84346486D02*
X160368338Y-84394105D01*
X160368338Y-84394105D02*
X160320719Y-84489343D01*
X160320719Y-84489343D02*
X160320719Y-84727438D01*
X160320719Y-84727438D02*
X160368338Y-84822676D01*
X160368338Y-84822676D02*
X160415957Y-84870295D01*
X160415957Y-84870295D02*
X160511195Y-84917914D01*
X160511195Y-84917914D02*
X160606433Y-84917914D01*
X160606433Y-84917914D02*
X160749290Y-84870295D01*
X160749290Y-84870295D02*
X161320719Y-84298867D01*
X161320719Y-84298867D02*
X161320719Y-84917914D01*
X165053994Y-82844819D02*
X165053994Y-81844819D01*
X165053994Y-81844819D02*
X164815899Y-81844819D01*
X164815899Y-81844819D02*
X164673042Y-81892438D01*
X164673042Y-81892438D02*
X164577804Y-81987676D01*
X164577804Y-81987676D02*
X164530185Y-82082914D01*
X164530185Y-82082914D02*
X164482566Y-82273390D01*
X164482566Y-82273390D02*
X164482566Y-82416247D01*
X164482566Y-82416247D02*
X164530185Y-82606723D01*
X164530185Y-82606723D02*
X164577804Y-82701961D01*
X164577804Y-82701961D02*
X164673042Y-82797200D01*
X164673042Y-82797200D02*
X164815899Y-82844819D01*
X164815899Y-82844819D02*
X165053994Y-82844819D01*
X163530185Y-82844819D02*
X164101613Y-82844819D01*
X163815899Y-82844819D02*
X163815899Y-81844819D01*
X163815899Y-81844819D02*
X163911137Y-81987676D01*
X163911137Y-81987676D02*
X164006375Y-82082914D01*
X164006375Y-82082914D02*
X164101613Y-82130533D01*
X167438904Y-96585819D02*
X167438904Y-97395342D01*
X167438904Y-97395342D02*
X167391285Y-97490580D01*
X167391285Y-97490580D02*
X167343666Y-97538200D01*
X167343666Y-97538200D02*
X167248428Y-97585819D01*
X167248428Y-97585819D02*
X167057952Y-97585819D01*
X167057952Y-97585819D02*
X166962714Y-97538200D01*
X166962714Y-97538200D02*
X166915095Y-97490580D01*
X166915095Y-97490580D02*
X166867476Y-97395342D01*
X166867476Y-97395342D02*
X166867476Y-96585819D01*
X165867476Y-97585819D02*
X166438904Y-97585819D01*
X166153190Y-97585819D02*
X166153190Y-96585819D01*
X166153190Y-96585819D02*
X166248428Y-96728676D01*
X166248428Y-96728676D02*
X166343666Y-96823914D01*
X166343666Y-96823914D02*
X166438904Y-96871533D01*
D12*
%TO.C,C3*%
X176485100Y-104927680D02*
X176485100Y-104646520D01*
X177505100Y-104927680D02*
X177505100Y-104646520D01*
%TO.C,C1*%
X161774220Y-95527700D02*
X162055380Y-95527700D01*
X161774220Y-96547700D02*
X162055380Y-96547700D01*
%TO.C,F1*%
X166760700Y-78317722D02*
X166760700Y-78834878D01*
X168180700Y-78317722D02*
X168180700Y-78834878D01*
%TO.C,J1*%
X159595900Y-66662800D02*
X168995900Y-66662800D01*
X159595900Y-68562800D02*
X159595900Y-66662800D01*
X159595900Y-72462800D02*
X159595900Y-70462800D01*
X168995900Y-68562800D02*
X168995900Y-66662800D01*
X168995900Y-72462800D02*
X168995900Y-70462800D01*
%TO.C,R4*%
X171201942Y-78053800D02*
X171676458Y-78053800D01*
X171201942Y-79098800D02*
X171676458Y-79098800D01*
%TO.C,R3*%
X167233442Y-109801800D02*
X167707958Y-109801800D01*
X167233442Y-110846800D02*
X167707958Y-110846800D01*
%TO.C,Y1*%
X174207700Y-98781000D02*
X176207700Y-98781000D01*
X174207700Y-98981000D02*
X174207700Y-99981000D01*
X174207700Y-101781000D02*
X174207700Y-102581000D01*
X174207700Y-102581000D02*
X176207700Y-102581000D01*
X176207700Y-98781000D02*
X176607700Y-98781000D01*
X176207700Y-98981000D02*
X174207700Y-98981000D01*
X176207700Y-98981000D02*
X176607700Y-98981000D01*
X176207700Y-102581000D02*
X176607700Y-102581000D01*
X176607700Y-99981000D02*
X176607700Y-98981000D01*
X176607700Y-99981000D02*
X177007700Y-99981000D01*
X176607700Y-102581000D02*
X176607700Y-101781000D01*
%TO.C,R5*%
X157389858Y-78053800D02*
X156915342Y-78053800D01*
X157389858Y-79098800D02*
X156915342Y-79098800D01*
%TO.C,R6*%
X158217500Y-99449758D02*
X158217500Y-98975242D01*
X159262500Y-99449758D02*
X159262500Y-98975242D01*
%TO.C,C2*%
X163584648Y-86397000D02*
X165007152Y-86397000D01*
X163584648Y-88217000D02*
X165007152Y-88217000D01*
%TO.C,C4*%
X173960880Y-96321400D02*
X173679720Y-96321400D01*
X173960880Y-97341400D02*
X173679720Y-97341400D01*
%TO.C,R1*%
X165773400Y-83894942D02*
X165773400Y-84369458D01*
X166818400Y-83894942D02*
X166818400Y-84369458D01*
%TO.C,SW2*%
X151227800Y-95581400D02*
X151227800Y-98081400D01*
X151677800Y-95131400D02*
X151227800Y-95581400D01*
X151677800Y-98531400D02*
X151227800Y-98081400D01*
X152977800Y-94081400D02*
X154977800Y-94081400D01*
X152977800Y-99581400D02*
X154977800Y-99581400D01*
X156277800Y-95131400D02*
X156727800Y-95581400D01*
X156277800Y-98531400D02*
X156727800Y-98081400D01*
X156727800Y-95581400D02*
X156727800Y-98081400D01*
%TO.C,R2*%
X161773400Y-83894942D02*
X161773400Y-84369458D01*
X162818400Y-83894942D02*
X162818400Y-84369458D01*
%TO.C,D1*%
X163645900Y-78450000D02*
X164945900Y-78450000D01*
X164945900Y-81570000D02*
X162945900Y-81570000D01*
D11*
%TO.C,U1*%
X163052000Y-99556000D02*
X163052000Y-99881000D01*
X163052000Y-99556000D02*
X163377000Y-99556000D01*
X163052000Y-106806000D02*
X163052000Y-106481000D01*
X163052000Y-106806000D02*
X163377000Y-106806000D01*
X170302000Y-99556000D02*
X169977000Y-99556000D01*
X170302000Y-99556000D02*
X170302000Y-99781000D01*
X170302000Y-99781000D02*
X171727000Y-99781000D01*
X170302000Y-106806000D02*
X169977000Y-106806000D01*
X170302000Y-106806000D02*
X170302000Y-106481000D01*
%TD*%
%LPC*%
D13*
%TO.C,SW1*%
X158422000Y-81718600D03*
X158422000Y-105594600D03*
D14*
X161597000Y-93656600D03*
D13*
X166677000Y-93656600D03*
D14*
X171757000Y-93656600D03*
D15*
X173662000Y-81718600D03*
X173662000Y-105594600D03*
D16*
X162867000Y-91116600D03*
X169217000Y-88576600D03*
%TD*%
D17*
%TO.C,C3*%
X176995100Y-105562100D03*
X176995100Y-104012100D03*
%TD*%
D18*
%TO.C,C1*%
X161139800Y-96037700D03*
X162689800Y-96037700D03*
%TD*%
D19*
%TO.C,F1*%
X167470700Y-77638800D03*
X167470700Y-79513800D03*
%TD*%
D20*
%TO.C,J1*%
X161405900Y-73162800D03*
X167185900Y-73162800D03*
D21*
X161045900Y-74607800D03*
X161845900Y-74607800D03*
D22*
X163045900Y-74607800D03*
X164045900Y-74607800D03*
X164545900Y-74607800D03*
X165545900Y-74607800D03*
D21*
X166745900Y-74607800D03*
X167545900Y-74607800D03*
X167545900Y-74607800D03*
X166745900Y-74607800D03*
D22*
X166045900Y-74607800D03*
X165045900Y-74607800D03*
X163545900Y-74607800D03*
X162545900Y-74607800D03*
D21*
X161845900Y-74607800D03*
X161045900Y-74607800D03*
D23*
X159975900Y-69512800D03*
D24*
X159975900Y-73692800D03*
D23*
X168615900Y-69512800D03*
D24*
X168615900Y-73692800D03*
%TD*%
D25*
%TO.C,R4*%
X170614200Y-78576300D03*
X172264200Y-78576300D03*
%TD*%
%TO.C,R3*%
X166645700Y-110324300D03*
X168295700Y-110324300D03*
%TD*%
D26*
%TO.C,Y1*%
X175407700Y-99581000D03*
X175407700Y-100781000D03*
X175407700Y-101981000D03*
%TD*%
D27*
%TO.C,R5*%
X157977600Y-78576300D03*
X156327600Y-78576300D03*
%TD*%
D28*
%TO.C,R6*%
X158740000Y-100037500D03*
X158740000Y-98387500D03*
%TD*%
D29*
%TO.C,C2*%
X162820900Y-87307000D03*
X165770900Y-87307000D03*
%TD*%
D30*
%TO.C,C4*%
X174595300Y-96831400D03*
X173045300Y-96831400D03*
%TD*%
D31*
%TO.C,R1*%
X166295900Y-83307200D03*
X166295900Y-84957200D03*
%TD*%
D32*
%TO.C,SW2*%
X152077800Y-93681400D03*
X152077800Y-99981400D03*
X155877800Y-93681400D03*
X155877800Y-99981400D03*
%TD*%
D31*
%TO.C,R2*%
X162295900Y-83307200D03*
X162295900Y-84957200D03*
%TD*%
D33*
%TO.C,D1*%
X163295900Y-80760000D03*
D34*
X163295900Y-79060000D03*
X165295900Y-79060000D03*
X165295900Y-80960000D03*
%TD*%
D35*
%TO.C,U1*%
X170927000Y-100381000D03*
X170927000Y-101181000D03*
X170927000Y-101981000D03*
X170927000Y-102781000D03*
X170927000Y-103581000D03*
X170927000Y-104381000D03*
X170927000Y-105181000D03*
X170927000Y-105981000D03*
D36*
X169477000Y-107431000D03*
X168677000Y-107431000D03*
X167877000Y-107431000D03*
X167077000Y-107431000D03*
X166277000Y-107431000D03*
X165477000Y-107431000D03*
X164677000Y-107431000D03*
X163877000Y-107431000D03*
D35*
X162427000Y-105981000D03*
X162427000Y-105181000D03*
X162427000Y-104381000D03*
X162427000Y-103581000D03*
X162427000Y-102781000D03*
X162427000Y-101981000D03*
X162427000Y-101181000D03*
X162427000Y-100381000D03*
D36*
X163877000Y-98931000D03*
X164677000Y-98931000D03*
X165477000Y-98931000D03*
X166277000Y-98931000D03*
X167077000Y-98931000D03*
X167877000Y-98931000D03*
X168677000Y-98931000D03*
X169477000Y-98931000D03*
%TD*%
%LPD*%
M02*
