%TF.GenerationSoftware,KiCad,Pcbnew,8.0.7*%
%TF.CreationDate,2025-02-15T22:59:02+05:30*%
%TF.ProjectId,isopcb,69736f70-6362-42e6-9b69-6361645f7063,rev?*%
%TF.SameCoordinates,Original*%
%TF.FileFunction,Copper,L2,Bot*%
%TF.FilePolarity,Positive*%
%FSLAX46Y46*%
G04 Gerber Fmt 4.6, Leading zero omitted, Abs format (unit mm)*
G04 Created by KiCad (PCBNEW 8.0.7) date 2025-02-15 22:59:02*
%MOMM*%
%LPD*%
G01*
G04 APERTURE LIST*
G04 Aperture macros list*
%AMRoundRect*
0 Rectangle with rounded corners*
0 $1 Rounding radius*
0 $2 $3 $4 $5 $6 $7 $8 $9 X,Y pos of 4 corners*
0 Add a 4 corners polygon primitive as box body*
4,1,4,$2,$3,$4,$5,$6,$7,$8,$9,$2,$3,0*
0 Add four circle primitives for the rounded corners*
1,1,$1+$1,$2,$3*
1,1,$1+$1,$4,$5*
1,1,$1+$1,$6,$7*
1,1,$1+$1,$8,$9*
0 Add four rect primitives between the rounded corners*
20,1,$1+$1,$2,$3,$4,$5,0*
20,1,$1+$1,$4,$5,$6,$7,0*
20,1,$1+$1,$6,$7,$8,$9,0*
20,1,$1+$1,$8,$9,$2,$3,0*%
G04 Aperture macros list end*
%TA.AperFunction,ComponentPad*%
%ADD10C,2.300000*%
%TD*%
%TA.AperFunction,SMDPad,CuDef*%
%ADD11RoundRect,0.225000X0.250000X-0.225000X0.250000X0.225000X-0.250000X0.225000X-0.250000X-0.225000X0*%
%TD*%
%TA.AperFunction,SMDPad,CuDef*%
%ADD12RoundRect,0.225000X-0.225000X-0.250000X0.225000X-0.250000X0.225000X0.250000X-0.225000X0.250000X0*%
%TD*%
%TA.AperFunction,SMDPad,CuDef*%
%ADD13RoundRect,0.243750X-0.456250X0.243750X-0.456250X-0.243750X0.456250X-0.243750X0.456250X0.243750X0*%
%TD*%
%TA.AperFunction,SMDPad,CuDef*%
%ADD14R,0.600000X1.450000*%
%TD*%
%TA.AperFunction,SMDPad,CuDef*%
%ADD15R,0.300000X1.450000*%
%TD*%
%TA.AperFunction,ComponentPad*%
%ADD16O,1.000000X1.600000*%
%TD*%
%TA.AperFunction,ComponentPad*%
%ADD17O,1.000000X2.100000*%
%TD*%
%TA.AperFunction,SMDPad,CuDef*%
%ADD18RoundRect,0.200000X-0.200000X-0.275000X0.200000X-0.275000X0.200000X0.275000X-0.200000X0.275000X0*%
%TD*%
%TA.AperFunction,SMDPad,CuDef*%
%ADD19R,1.900000X0.400000*%
%TD*%
%TA.AperFunction,SMDPad,CuDef*%
%ADD20RoundRect,0.200000X0.200000X0.275000X-0.200000X0.275000X-0.200000X-0.275000X0.200000X-0.275000X0*%
%TD*%
%TA.AperFunction,SMDPad,CuDef*%
%ADD21RoundRect,0.200000X0.275000X-0.200000X0.275000X0.200000X-0.275000X0.200000X-0.275000X-0.200000X0*%
%TD*%
%TA.AperFunction,SMDPad,CuDef*%
%ADD22RoundRect,0.250000X-0.325000X-0.650000X0.325000X-0.650000X0.325000X0.650000X-0.325000X0.650000X0*%
%TD*%
%TA.AperFunction,SMDPad,CuDef*%
%ADD23RoundRect,0.225000X0.225000X0.250000X-0.225000X0.250000X-0.225000X-0.250000X0.225000X-0.250000X0*%
%TD*%
%TA.AperFunction,SMDPad,CuDef*%
%ADD24RoundRect,0.200000X-0.275000X0.200000X-0.275000X-0.200000X0.275000X-0.200000X0.275000X0.200000X0*%
%TD*%
%TA.AperFunction,SMDPad,CuDef*%
%ADD25R,1.000000X1.700000*%
%TD*%
%TA.AperFunction,SMDPad,CuDef*%
%ADD26R,0.700000X1.000000*%
%TD*%
%TA.AperFunction,SMDPad,CuDef*%
%ADD27R,0.700000X0.600000*%
%TD*%
%TA.AperFunction,SMDPad,CuDef*%
%ADD28R,1.600000X0.550000*%
%TD*%
%TA.AperFunction,SMDPad,CuDef*%
%ADD29R,0.550000X1.600000*%
%TD*%
%TA.AperFunction,ViaPad*%
%ADD30C,0.800000*%
%TD*%
%TA.AperFunction,Conductor*%
%ADD31C,0.250000*%
%TD*%
%TA.AperFunction,Conductor*%
%ADD32C,0.550000*%
%TD*%
%TA.AperFunction,Conductor*%
%ADD33C,0.200000*%
%TD*%
G04 APERTURE END LIST*
D10*
%TO.P,SW1,1,1*%
%TO.N,SW1*%
X162867000Y-91116600D03*
%TO.P,SW1,2,2*%
%TO.N,GND*%
X169217000Y-88576600D03*
%TD*%
D11*
%TO.P,C3,1*%
%TO.N,GND*%
X176995100Y-105562100D03*
%TO.P,C3,2*%
%TO.N,VCC*%
X176995100Y-104012100D03*
%TD*%
D12*
%TO.P,C1,1*%
%TO.N,GND*%
X161139800Y-96037700D03*
%TO.P,C1,2*%
%TO.N,Net-(U1-UCAP)*%
X162689800Y-96037700D03*
%TD*%
D13*
%TO.P,F1,1*%
%TO.N,Net-(F1-Pad1)*%
X167470700Y-77638800D03*
%TO.P,F1,2*%
%TO.N,VCC*%
X167470700Y-79513800D03*
%TD*%
D14*
%TO.P,J1,A1,GND*%
%TO.N,GND*%
X161045900Y-74607800D03*
%TO.P,J1,A4,VBUS*%
%TO.N,Net-(F1-Pad1)*%
X161845900Y-74607800D03*
D15*
%TO.P,J1,A5,CC1*%
%TO.N,Net-(J1-CC1)*%
X163045900Y-74607800D03*
%TO.P,J1,A6,D+*%
%TO.N,D+*%
X164045900Y-74607800D03*
%TO.P,J1,A7,D-*%
%TO.N,D-*%
X164545900Y-74607800D03*
%TO.P,J1,A8,SBU1*%
%TO.N,unconnected-(J1-SBU1-PadA8)*%
X165545900Y-74607800D03*
D14*
%TO.P,J1,A9,VBUS*%
%TO.N,Net-(F1-Pad1)*%
X166745900Y-74607800D03*
%TO.P,J1,A12,GND*%
%TO.N,GND*%
X167545900Y-74607800D03*
%TO.P,J1,B1,GND*%
X167545900Y-74607800D03*
%TO.P,J1,B4,VBUS*%
%TO.N,Net-(F1-Pad1)*%
X166745900Y-74607800D03*
D15*
%TO.P,J1,B5,CC2*%
%TO.N,Net-(J1-CC2)*%
X166045900Y-74607800D03*
%TO.P,J1,B6,D+*%
%TO.N,D+*%
X165045900Y-74607800D03*
%TO.P,J1,B7,D-*%
%TO.N,D-*%
X163545900Y-74607800D03*
%TO.P,J1,B8,SBU2*%
%TO.N,unconnected-(J1-SBU2-PadB8)*%
X162545900Y-74607800D03*
D14*
%TO.P,J1,B9,VBUS*%
%TO.N,Net-(F1-Pad1)*%
X161845900Y-74607800D03*
%TO.P,J1,B12,GND*%
%TO.N,GND*%
X161045900Y-74607800D03*
D16*
%TO.P,J1,S1,SHIELD*%
X159975900Y-69512800D03*
D17*
X159975900Y-73692800D03*
D16*
X168615900Y-69512800D03*
D17*
X168615900Y-73692800D03*
%TD*%
D18*
%TO.P,R4,1*%
%TO.N,Net-(J1-CC2)*%
X170614200Y-78576300D03*
%TO.P,R4,2*%
%TO.N,GND*%
X172264200Y-78576300D03*
%TD*%
%TO.P,R3,1*%
%TO.N,Net-(U1-~{HWB}{slash}PD7)*%
X166645700Y-110324300D03*
%TO.P,R3,2*%
%TO.N,GND*%
X168295700Y-110324300D03*
%TD*%
D19*
%TO.P,Y1,1,1*%
%TO.N,Net-(U1-XTAL1)*%
X175407700Y-99581000D03*
%TO.P,Y1,2,2*%
%TO.N,GND*%
X175407700Y-100781000D03*
%TO.P,Y1,3,3*%
%TO.N,Net-(U1-PC0{slash}XTAL2)*%
X175407700Y-101981000D03*
%TD*%
D20*
%TO.P,R5,1*%
%TO.N,Net-(J1-CC1)*%
X157977600Y-78576300D03*
%TO.P,R5,2*%
%TO.N,GND*%
X156327600Y-78576300D03*
%TD*%
D21*
%TO.P,R6,1*%
%TO.N,Net-(U1-PC1{slash}~{RESET})*%
X158740000Y-100037500D03*
%TO.P,R6,2*%
%TO.N,VCC*%
X158740000Y-98387500D03*
%TD*%
D22*
%TO.P,C2,1*%
%TO.N,GND*%
X162820900Y-87307000D03*
%TO.P,C2,2*%
%TO.N,VCC*%
X165770900Y-87307000D03*
%TD*%
D23*
%TO.P,C4,1*%
%TO.N,GND*%
X174595300Y-96831400D03*
%TO.P,C4,2*%
%TO.N,VCC*%
X173045300Y-96831400D03*
%TD*%
D24*
%TO.P,R1,1*%
%TO.N,D-*%
X166295900Y-83307200D03*
%TO.P,R1,2*%
%TO.N,Net-(U1-D-)*%
X166295900Y-84957200D03*
%TD*%
D25*
%TO.P,SW2,1,1*%
%TO.N,GND*%
X152077800Y-93681400D03*
X152077800Y-99981400D03*
%TO.P,SW2,2,2*%
%TO.N,Net-(U1-PC1{slash}~{RESET})*%
X155877800Y-93681400D03*
X155877800Y-99981400D03*
%TD*%
D24*
%TO.P,R2,1*%
%TO.N,D+*%
X162295900Y-83307200D03*
%TO.P,R2,2*%
%TO.N,Net-(U1-D+)*%
X162295900Y-84957200D03*
%TD*%
D26*
%TO.P,D1,1,GND*%
%TO.N,GND*%
X163295900Y-80760000D03*
D27*
%TO.P,D1,2,I/O1*%
%TO.N,D+*%
X163295900Y-79060000D03*
%TO.P,D1,3,I/O2*%
%TO.N,D-*%
X165295900Y-79060000D03*
%TO.P,D1,4,VCC*%
%TO.N,VCC*%
X165295900Y-80960000D03*
%TD*%
D28*
%TO.P,U1,1,XTAL1*%
%TO.N,Net-(U1-XTAL1)*%
X170927000Y-100381000D03*
%TO.P,U1,2,PC0/XTAL2*%
%TO.N,Net-(U1-PC0{slash}XTAL2)*%
X170927000Y-101181000D03*
%TO.P,U1,3,GND*%
%TO.N,GND*%
X170927000Y-101981000D03*
%TO.P,U1,4,VCC*%
%TO.N,VCC*%
X170927000Y-102781000D03*
%TO.P,U1,5,PC2*%
%TO.N,unconnected-(U1-PC2-Pad5)*%
X170927000Y-103581000D03*
%TO.P,U1,6,PD0*%
%TO.N,unconnected-(U1-PD0-Pad6)*%
X170927000Y-104381000D03*
%TO.P,U1,7,PD1*%
%TO.N,unconnected-(U1-PD1-Pad7)*%
X170927000Y-105181000D03*
%TO.P,U1,8,PD2*%
%TO.N,unconnected-(U1-PD2-Pad8)*%
X170927000Y-105981000D03*
D29*
%TO.P,U1,9,PD3*%
%TO.N,unconnected-(U1-PD3-Pad9)*%
X169477000Y-107431000D03*
%TO.P,U1,10,PD4*%
%TO.N,unconnected-(U1-PD4-Pad10)*%
X168677000Y-107431000D03*
%TO.P,U1,11,PD5*%
%TO.N,unconnected-(U1-PD5-Pad11)*%
X167877000Y-107431000D03*
%TO.P,U1,12,PD6*%
%TO.N,unconnected-(U1-PD6-Pad12)*%
X167077000Y-107431000D03*
%TO.P,U1,13,~{HWB}/PD7*%
%TO.N,Net-(U1-~{HWB}{slash}PD7)*%
X166277000Y-107431000D03*
%TO.P,U1,14,PB0*%
%TO.N,unconnected-(U1-PB0-Pad14)*%
X165477000Y-107431000D03*
%TO.P,U1,15,PB1*%
%TO.N,unconnected-(U1-PB1-Pad15)*%
X164677000Y-107431000D03*
%TO.P,U1,16,PB2*%
%TO.N,unconnected-(U1-PB2-Pad16)*%
X163877000Y-107431000D03*
D28*
%TO.P,U1,17,PB3*%
%TO.N,unconnected-(U1-PB3-Pad17)*%
X162427000Y-105981000D03*
%TO.P,U1,18,PB4*%
%TO.N,unconnected-(U1-PB4-Pad18)*%
X162427000Y-105181000D03*
%TO.P,U1,19,PB5*%
%TO.N,unconnected-(U1-PB5-Pad19)*%
X162427000Y-104381000D03*
%TO.P,U1,20,PB6*%
%TO.N,unconnected-(U1-PB6-Pad20)*%
X162427000Y-103581000D03*
%TO.P,U1,21,PB7*%
%TO.N,unconnected-(U1-PB7-Pad21)*%
X162427000Y-102781000D03*
%TO.P,U1,22,PC7*%
%TO.N,unconnected-(U1-PC7-Pad22)*%
X162427000Y-101981000D03*
%TO.P,U1,23,PC6*%
%TO.N,unconnected-(U1-PC6-Pad23)*%
X162427000Y-101181000D03*
%TO.P,U1,24,PC1/~{RESET}*%
%TO.N,Net-(U1-PC1{slash}~{RESET})*%
X162427000Y-100381000D03*
D29*
%TO.P,U1,25,PC5*%
%TO.N,unconnected-(U1-PC5-Pad25)*%
X163877000Y-98931000D03*
%TO.P,U1,26,PC4*%
%TO.N,SW1*%
X164677000Y-98931000D03*
%TO.P,U1,27,UCAP*%
%TO.N,Net-(U1-UCAP)*%
X165477000Y-98931000D03*
%TO.P,U1,28,UGND*%
%TO.N,GND*%
X166277000Y-98931000D03*
%TO.P,U1,29,D+*%
%TO.N,Net-(U1-D+)*%
X167077000Y-98931000D03*
%TO.P,U1,30,D-*%
%TO.N,Net-(U1-D-)*%
X167877000Y-98931000D03*
%TO.P,U1,31,UVCC*%
%TO.N,VCC*%
X168677000Y-98931000D03*
%TO.P,U1,32,AVCC*%
X169477000Y-98931000D03*
%TD*%
D30*
%TO.N,D+*%
X165270400Y-76988900D03*
X163821400Y-77782600D03*
%TO.N,VCC*%
X178582500Y-103181000D03*
X170392975Y-95244000D03*
X159533700Y-96831400D03*
X173820300Y-95244000D03*
%TD*%
D31*
%TO.N,Net-(U1-PC1{slash}~{RESET})*%
X162427000Y-100381000D02*
X159083500Y-100381000D01*
X155877800Y-93681400D02*
X155877800Y-99981400D01*
X158740000Y-100037500D02*
X155933900Y-100037500D01*
X155933900Y-100037500D02*
X155877800Y-99981400D01*
X159083500Y-100381000D02*
X158740000Y-100037500D01*
%TO.N,Net-(U1-XTAL1)*%
X172651800Y-100381000D02*
X170927000Y-100381000D01*
X175407700Y-99581000D02*
X173451800Y-99581000D01*
X173451800Y-99581000D02*
X172651800Y-100381000D01*
%TO.N,Net-(U1-PC0{slash}XTAL2)*%
X173492350Y-101981000D02*
X175407700Y-101981000D01*
X172692350Y-101181000D02*
X173492350Y-101981000D01*
X170927000Y-101181000D02*
X172692350Y-101181000D01*
D32*
%TO.N,GND*%
X178281000Y-100781000D02*
X179457500Y-101957500D01*
X170687900Y-77000000D02*
X172264200Y-78576300D01*
X164102200Y-92628716D02*
X164880728Y-91850188D01*
X155500000Y-83000000D02*
X155500000Y-79403900D01*
X177281000Y-100781000D02*
X177419937Y-100781000D01*
X160000000Y-91451743D02*
X154307457Y-91451743D01*
X179457500Y-101957500D02*
X179457500Y-106042500D01*
X168460900Y-73692800D02*
X167545900Y-74607800D01*
X177419937Y-100781000D02*
X178281000Y-100781000D01*
X166277000Y-100984150D02*
X166277000Y-98931000D01*
X155500000Y-79403900D02*
X156327600Y-78576300D01*
X167273850Y-101981000D02*
X166277000Y-100984150D01*
X176331400Y-96831400D02*
X174595300Y-96831400D01*
X161345900Y-84500000D02*
X161345900Y-82710000D01*
X177419937Y-100781000D02*
X177419937Y-97919937D01*
X164880728Y-91850188D02*
X164880728Y-90690671D01*
X162820900Y-87307000D02*
X161345900Y-85832000D01*
X177419937Y-102068763D02*
X177419937Y-100781000D01*
X179000000Y-106500000D02*
X177000000Y-106500000D01*
X161345900Y-82710000D02*
X163295900Y-80760000D01*
X152077800Y-93681400D02*
X152077800Y-99981400D01*
X170927000Y-101981000D02*
X167273850Y-101981000D01*
X176995100Y-106495100D02*
X173165900Y-110324300D01*
X166277000Y-98931000D02*
X166277000Y-97225100D01*
X176758100Y-102730600D02*
X177419937Y-102068763D01*
X159975900Y-73692800D02*
X159975900Y-69512800D01*
X161345900Y-85832000D02*
X161345900Y-84500000D01*
X173026600Y-102730600D02*
X176758100Y-102730600D01*
X170927000Y-101981000D02*
X172277000Y-101981000D01*
X168615900Y-76193925D02*
X169421975Y-77000000D01*
X159975900Y-73692800D02*
X160130900Y-73692800D01*
X177419937Y-97919937D02*
X176331400Y-96831400D01*
X176995100Y-106495100D02*
X176995100Y-105562100D01*
X160130900Y-73692800D02*
X161045900Y-74607800D01*
X161345900Y-84500000D02*
X157000000Y-84500000D01*
X168615900Y-73692800D02*
X168615900Y-76193925D01*
X169000000Y-80500000D02*
X167695900Y-81804100D01*
X169421975Y-77000000D02*
X170687900Y-77000000D01*
X168615900Y-73692800D02*
X168460900Y-73692800D01*
X168615900Y-69512800D02*
X168615900Y-73692800D01*
X160000000Y-94897900D02*
X161139800Y-96037700D01*
X156327600Y-78576300D02*
X157903900Y-77000000D01*
X157903900Y-77000000D02*
X159000000Y-77000000D01*
X157000000Y-84500000D02*
X155500000Y-83000000D01*
X173165900Y-110324300D02*
X168295700Y-110324300D01*
X164102200Y-95050300D02*
X164102200Y-92628716D01*
X162820900Y-88630843D02*
X160000000Y-91451743D01*
X170340500Y-80500000D02*
X169000000Y-80500000D01*
X167695900Y-81804100D02*
X167695900Y-87055500D01*
X167695900Y-87055500D02*
X169217000Y-88576600D01*
X159975900Y-69512800D02*
X168615900Y-69512800D01*
X177281000Y-100781000D02*
X175407700Y-100781000D01*
X154307457Y-91451743D02*
X152077800Y-93681400D01*
X172277000Y-101981000D02*
X173026600Y-102730600D01*
X164880728Y-90690671D02*
X162820900Y-88630843D01*
X166277000Y-97225100D02*
X164102200Y-95050300D01*
X159975900Y-76024100D02*
X159975900Y-73692800D01*
X179457500Y-106042500D02*
X179000000Y-106500000D01*
X172264200Y-78576300D02*
X170340500Y-80500000D01*
X177000000Y-106500000D02*
X176995100Y-106495100D01*
X159000000Y-77000000D02*
X159975900Y-76024100D01*
X162820900Y-87307000D02*
X162820900Y-88630843D01*
X160000000Y-91451743D02*
X160000000Y-94897900D01*
D31*
%TO.N,D-*%
X164545900Y-78310000D02*
X165295900Y-79060000D01*
X164545900Y-74607800D02*
X164545900Y-78310000D01*
X164545900Y-81557200D02*
X166295900Y-83307200D01*
X164545900Y-79810000D02*
X164545900Y-81557200D01*
X165295900Y-79060000D02*
X164545900Y-79810000D01*
D33*
X163545900Y-74607800D02*
X163545900Y-73632800D01*
X164545900Y-73632800D02*
X164545900Y-74607800D01*
X163595900Y-73582800D02*
X164495900Y-73582800D01*
X163545900Y-73632800D02*
X163595900Y-73582800D01*
X164495900Y-73582800D02*
X164545900Y-73632800D01*
D31*
%TO.N,D+*%
X164045900Y-81557200D02*
X162295900Y-83307200D01*
D33*
X165045900Y-74607800D02*
X165045900Y-76764400D01*
D31*
X164045900Y-79810000D02*
X164045900Y-81557200D01*
X164045900Y-77558100D02*
X163821400Y-77782600D01*
X164045900Y-74607800D02*
X164045900Y-77558100D01*
X163821400Y-77782600D02*
X163821400Y-78534500D01*
D33*
X165045900Y-76764400D02*
X165270400Y-76988900D01*
D31*
X163295900Y-79060000D02*
X164045900Y-79810000D01*
X163821400Y-78534500D02*
X163295900Y-79060000D01*
%TO.N,VCC*%
X170392975Y-95244000D02*
X170118475Y-94969500D01*
X176995100Y-104012100D02*
X177751400Y-104012100D01*
X170118475Y-92164921D02*
X167940401Y-89986847D01*
X176313600Y-103330600D02*
X176995100Y-104012100D01*
X167470700Y-79513800D02*
X166742100Y-79513800D01*
X166298224Y-89986847D02*
X164995900Y-88684523D01*
X167095900Y-85982000D02*
X167095900Y-82760000D01*
X159533700Y-96831400D02*
X158740000Y-97625100D01*
X167095900Y-82760000D02*
X165295900Y-80960000D01*
X170927000Y-102781000D02*
X172228472Y-102781000D01*
X173820300Y-95244000D02*
X173820300Y-96056400D01*
X170392975Y-95244000D02*
X168677000Y-96959975D01*
X168677000Y-96959975D02*
X168677000Y-98931000D01*
X170118475Y-94969500D02*
X170118475Y-92164921D01*
X177751400Y-104012100D02*
X178582500Y-103181000D01*
X158740000Y-97625100D02*
X158740000Y-98387500D01*
X173820300Y-96056400D02*
X173045300Y-96831400D01*
X169477000Y-97206200D02*
X169851800Y-96831400D01*
X169851800Y-96831400D02*
X173045300Y-96831400D01*
X169477000Y-98931000D02*
X169477000Y-97206200D01*
X172228472Y-102781000D02*
X172778072Y-103330600D01*
X167940401Y-89986847D02*
X166298224Y-89986847D01*
X164995900Y-88082000D02*
X167095900Y-85982000D01*
X166742100Y-79513800D02*
X165295900Y-80960000D01*
X172778072Y-103330600D02*
X176313600Y-103330600D01*
X164995900Y-88684523D02*
X164995900Y-88082000D01*
%TO.N,Net-(F1-Pad1)*%
X166745900Y-73782800D02*
X165983500Y-73020400D01*
X166745900Y-74607800D02*
X166745900Y-76914000D01*
X161845900Y-73782800D02*
X161845900Y-74607800D01*
X166745900Y-74607800D02*
X166745900Y-73782800D01*
X166745900Y-76914000D02*
X167470700Y-77638800D01*
X165983500Y-73020400D02*
X162608300Y-73020400D01*
X162608300Y-73020400D02*
X161845900Y-73782800D01*
%TO.N,Net-(U1-D-)*%
X164545900Y-88870919D02*
X166111828Y-90436847D01*
X167877000Y-97061496D02*
X167877000Y-98931000D01*
X164545900Y-86707200D02*
X164545900Y-88870919D01*
X166295900Y-84957200D02*
X164545900Y-86707200D01*
X166111828Y-90436847D02*
X167754005Y-90436847D01*
X167754005Y-90436847D02*
X169668475Y-92351317D01*
X169668475Y-95270021D02*
X167877000Y-97061496D01*
X169668475Y-92351317D02*
X169668475Y-95270021D01*
%TO.N,Net-(U1-D+)*%
X167567609Y-90886847D02*
X169218475Y-92537713D01*
X164045900Y-89007315D02*
X165925432Y-90886847D01*
X164045900Y-88894400D02*
X164045900Y-89007315D01*
X169218475Y-95083625D02*
X167077000Y-97225100D01*
X167077000Y-97225100D02*
X167077000Y-98931000D01*
X165925432Y-90886847D02*
X167567609Y-90886847D01*
X169218475Y-92537713D02*
X169218475Y-95083625D01*
X164045900Y-86707200D02*
X164045900Y-88894400D01*
X162295900Y-84957200D02*
X164045900Y-86707200D01*
%TO.N,Net-(J1-CC2)*%
X166045900Y-77725088D02*
X166897112Y-78576300D01*
X166045900Y-74607800D02*
X166045900Y-77725088D01*
X166897112Y-78576300D02*
X170614200Y-78576300D01*
%TO.N,Net-(J1-CC1)*%
X163045900Y-75714100D02*
X160183700Y-78576300D01*
X163045900Y-74607800D02*
X163045900Y-75714100D01*
X160183700Y-78576300D02*
X157977600Y-78576300D01*
%TO.N,Net-(U1-~{HWB}{slash}PD7)*%
X166277000Y-107431000D02*
X166277000Y-109955600D01*
X166277000Y-109955600D02*
X166645700Y-110324300D01*
%TO.N,Net-(U1-UCAP)*%
X163633700Y-96037700D02*
X165477000Y-97881000D01*
X165477000Y-97881000D02*
X165477000Y-98931000D01*
X162689800Y-96037700D02*
X163633700Y-96037700D01*
%TO.N,SW1*%
X164677000Y-98931000D02*
X164677000Y-97881000D01*
X163502200Y-93948282D02*
X163502200Y-91751800D01*
X164677000Y-97881000D02*
X163990397Y-97194397D01*
X161914800Y-95535682D02*
X163502200Y-93948282D01*
X161914800Y-96521752D02*
X161914800Y-95535682D01*
X163502200Y-91751800D02*
X162867000Y-91116600D01*
X162587445Y-97194397D02*
X161914800Y-96521752D01*
X163990397Y-97194397D02*
X162587445Y-97194397D01*
%TD*%
M02*
